<svg width="1065" height="637" viewBox="0 0 1065 637" fill="none" xmlns="http://www.w3.org/2000/svg">
<g opacity="0.6" clip-path="url(#clip0_1_446)">
<path d="M988.282 376.147L988.428 375.605L1366.01 476.773L1365.87 477.316L988.282 376.147Z" fill="#D1D1D1"/>
<path d="M992.884 611.156L891.715 233.57L892.257 233.425L993.426 611.009L992.884 611.156Z" fill="#D1D1D1"/>
<path d="M705.445 82.5437L625.817 -214.381L626.3 -214.51L705.928 82.4143L705.445 82.5437Z" fill="#D1D1D1"/>
<path d="M690.124 121.729L690.249 121.262L967.321 195.498L967.202 195.971L690.124 121.729Z" fill="#D1D1D1"/>
<path d="M676.494 -27.4842L676.34 -27.5281L613.516 -44.36L567.414 1.74266L567.457 1.89677L584.289 64.7207L647.268 81.5969L693.371 35.4943L693.327 35.3401L676.494 -27.4842ZM613.687 -43.7364L676.041 -27.0317L692.747 35.3231L647.102 80.9676L584.747 64.2626L568.043 1.90808L613.687 -43.7364Z" fill="#D1D1D1"/>
<path d="M659.711 -90.1572L659.557 -90.201L596.733 -107.033L550.63 -60.9303L550.674 -60.7762L567.506 2.0474L630.485 18.9239L676.587 -27.1787L676.543 -27.3336L659.711 -90.1572ZM596.903 -106.399L659.259 -89.694L675.964 -27.3385L630.319 18.3059L567.964 1.60054L551.259 -60.7543L596.903 -106.399Z" fill="#D1D1D1"/>
<path d="M1150.63 -104.333L1150.47 -104.383L1087.65 -121.211L1041.55 -75.1086L1041.59 -74.9544L1058.43 -12.1273L1058.58 -12.0834L1121.4 4.74505L1167.51 -41.3576L1167.46 -41.5118L1150.63 -104.333ZM1087.82 -120.582L1150.17 -103.869L1166.88 -41.5217L1121.23 4.12275L1058.88 -12.5798L1042.17 -74.9374L1087.82 -120.582Z" fill="#D1D1D1"/>
<path d="M854.485 -126.018L854.067 -126.128L790.983 -143.032L744.499 -96.5487L744.61 -96.1294L761.514 -33.0463L761.933 -32.9353L825.016 -16.0319L871.5 -62.5157L871.389 -62.935L854.485 -126.018ZM791.43 -141.36L853.261 -124.793L869.828 -62.9618L824.564 -17.6985L762.733 -34.2661L746.167 -96.0962L791.43 -141.36Z" fill="#D1D1D1"/>
<path d="M864.496 22.8851L864.342 22.8413L801.518 6.00931L755.416 52.112L755.459 52.2661L772.291 115.09L835.27 131.966L881.373 85.8636L881.328 85.7088L864.496 22.8851ZM801.689 6.633L864.039 23.3426L880.749 85.6925L835.104 131.337L772.75 114.632L756.045 52.2774L801.689 6.633Z" fill="#D1D1D1"/>
<path d="M847.716 -39.7907L847.561 -39.8352L784.736 -56.6665L738.634 -10.5639L738.678 -10.409L755.51 52.4146L755.664 52.4585L818.488 69.2904L864.591 23.1878L864.547 23.0336L847.716 -39.7907ZM784.902 -56.0372L847.252 -39.3268L863.961 23.0223L818.317 68.6668L755.963 51.9621L739.257 -10.3927L784.902 -56.0372Z" fill="#D1D1D1"/>
<path d="M785.039 -56.5717L784.884 -56.6163L722.061 -73.4483L675.958 -27.3456L676.003 -27.1908L692.835 35.6328L755.812 52.5087L801.915 6.40603L801.871 6.25187L785.039 -56.5717ZM722.232 -72.8246L784.582 -56.1142L801.291 6.23491L755.647 51.8793L693.293 35.1746L676.587 -27.1802L722.232 -72.8246Z" fill="#D1D1D1"/>
<path d="M996.209 -29.3701L996.054 -29.4146L933.23 -46.2466L887.128 -0.143929L887.172 0.0109228L904.004 62.8345L904.158 62.8784L966.985 79.7132L1013.09 33.6105L1013.04 33.4564L996.209 -29.3701ZM933.396 -45.6173L995.746 -28.9069L1012.45 33.4394L966.808 79.0839L904.457 62.382L887.751 0.0272151L933.396 -45.6173Z" fill="#D1D1D1"/>
<path d="M979.423 -92.0416L979.269 -92.0855L916.444 -108.917L870.342 -62.8148L870.385 -62.66L887.217 0.16368L887.372 0.20822L950.197 17.0395L996.299 -29.0625L996.254 -29.2173L979.423 -92.0416ZM916.615 -108.293L978.97 -91.5891L995.675 -29.2336L950.03 16.4109L887.676 -0.294532L870.971 -62.6486L916.615 -108.293Z" fill="#D1D1D1"/>
<path d="M1167.42 -41.6723L1167.27 -41.7161L1104.44 -58.5517L1058.34 -12.449L1058.38 -12.2948L1075.22 50.533L1075.37 50.5762L1138.2 67.4116L1184.3 21.309L1184.25 21.1477L1167.42 -41.6723ZM1104.61 -57.9167L1166.96 -41.2084L1183.67 21.1379L1138.02 66.7824L1075.68 50.0748L1058.97 -12.2722L1104.61 -57.9167Z" fill="#D1D1D1"/>
<path d="M1155.13 129.538L1154.98 129.494L1092.15 112.659L1046.05 158.761L1046.09 158.915L1062.93 221.743L1063.08 221.787L1125.9 238.615L1172 192.512L1171.96 192.358L1155.13 129.538ZM1092.33 113.288L1154.67 129.996L1171.38 192.343L1125.74 237.987L1063.38 221.285L1046.68 158.932L1092.33 113.288Z" fill="#D1D1D1"/>
<path d="M983.936 141.816L983.782 141.772L920.954 124.938L874.852 171.04L874.896 171.194L891.731 234.022L891.885 234.065L954.713 250.9L1000.81 204.798L1000.76 204.637L983.936 141.816ZM921.131 125.567L983.484 142.269L1000.19 204.622L954.541 250.266L892.189 233.563L875.487 171.211L921.131 125.567Z" fill="#D1D1D1"/>
<path d="M1075.68 50.0692L1075.53 50.0253L1012.7 33.1905L966.599 79.2925L966.643 79.4466L983.478 142.274L983.632 142.318L1046.46 159.153L1092.56 113.051L1092.51 112.89L1075.68 50.0692ZM1012.88 33.8199L1075.23 50.5274L1091.93 112.874L1046.29 158.519L983.936 141.816L967.234 79.4643L1012.88 33.8199Z" fill="#D1D1D1"/>
<path d="M1126.04 238.08L1125.88 238.037L1063.06 221.201L1016.95 267.304L1017 267.458L1033.83 330.286L1033.99 330.329L1096.81 347.157L1142.91 301.055L1142.87 300.9L1126.04 238.08ZM1063.23 221.823L1125.59 238.533L1142.29 300.885L1096.64 346.529L1034.29 329.827L1017.58 267.468L1063.23 221.823Z" fill="#D1D1D1"/>
<path opacity="0.3" d="M1109.64 175.029L1109.22 174.915L1046.13 158.01L999.648 204.494L999.763 204.917L1016.67 268.001L1017.08 268.108L1080.17 285.012L1126.65 238.529L1126.54 238.113L1109.64 175.029ZM1046.59 159.678L1108.42 176.249L1124.98 238.075L1079.72 283.339L1017.89 266.776L1001.32 204.942L1046.59 159.678Z" fill="#1814E5"/>
<path d="M1000.73 204.478L1000.57 204.434L937.751 187.606L891.648 233.708L891.692 233.862L908.52 296.683L971.502 313.562L1017.6 267.459L1017.56 267.305L1000.73 204.478ZM937.915 188.234L1000.27 204.936L1016.98 267.295L971.332 312.94L908.973 296.23L892.271 233.878L937.915 188.234Z" fill="#D1D1D1"/>
<path d="M971.641 313.027L908.66 296.147L862.557 342.25L862.601 342.404L879.436 405.232L942.411 422.104L988.513 376.001L988.469 375.847L971.641 313.027ZM908.831 296.782L971.183 313.485L987.885 375.837L942.241 421.481L879.889 404.779L863.186 342.427L908.831 296.782Z" fill="#D1D1D1"/>
<path d="M954.855 250.348L954.701 250.304L891.881 233.476L845.778 279.578L845.822 279.732L862.65 342.553L925.632 359.432L971.734 313.329L971.691 313.175L954.855 250.348ZM892.045 234.104L954.392 250.811L971.106 313.165L925.462 358.81L863.103 342.1L846.4 279.748L892.045 234.104Z" fill="#D1D1D1"/>
<path d="M1058.88 -12.5742L1058.71 -12.625L995.895 -29.4535L949.792 16.6492L949.836 16.8033L966.671 79.6311L966.825 79.675L1029.65 96.5028L1075.75 50.4001L1075.7 50.246L1058.88 -12.5742ZM996.066 -28.8298L1058.42 -12.1216L1075.13 50.2304L1029.48 95.8748L967.129 79.1729L950.422 16.8146L996.066 -28.8298Z" fill="#D1D1D1"/>
<path d="M990.087 56.2153L989.925 56.1644L927.105 39.3367L881.003 85.4386L881.047 85.5928L897.881 148.421L898.035 148.464L960.856 165.292L1006.96 119.19L1006.91 119.036L990.087 56.2153ZM927.271 39.9653L989.628 56.6735L1006.33 119.026L960.687 164.67L898.334 147.968L881.626 85.6098L927.271 39.9653Z" fill="#D1D1D1"/>
<path d="M708.661 79.5286C710.304 81.1712 710.304 83.8349 708.662 85.4775C707.018 87.1208 704.355 87.1201 702.712 85.4775C701.069 83.8349 701.069 81.1712 702.712 79.5279C704.355 77.8853 707.018 77.886 708.661 79.5286Z" fill="#C5C8CD"/>
<path d="M1037.04 327.079C1038.68 328.719 1038.68 331.381 1037.03 333.024C1035.39 334.666 1032.73 334.669 1031.09 333.028C1029.44 331.381 1029.44 328.719 1031.09 327.077C1032.73 325.434 1035.39 325.431 1037.04 327.079Z" fill="#C5C8CD"/>
<path d="M969.871 76.4167C971.519 78.0642 971.516 80.7258 969.873 82.3684C968.231 84.011 965.569 84.0138 963.922 82.3663C962.281 80.7258 962.284 78.0642 963.927 76.4216C965.569 74.779 968.231 74.7762 969.871 76.4167Z" fill="#C5C8CD"/>
</g>
<defs>
<clipPath id="clip0_1_446">
<rect width="1440" height="808" fill="white" transform="matrix(0.707107 0.707107 0.707107 -0.707107 0 -381.658)"/>
</clipPath>
</defs>
</svg>
